<svg id="Layer_1" data-name="Layer 1" xmlns="http://www.w3.org/2000/svg" viewBox="0 0 135.88 109.75"><defs><style>.cls-1{fill:#fff;}</style></defs><path class="cls-1" d="M40.53,37.61,51,105.55,61.43,37.61H87.56L66.66,147.36H35.3L14.39,37.61Z" transform="translate(-14.39 -37.61)"/><path class="cls-1" d="M150.28,74.2H124.15V63.74H113.69V69q0,10.45,10.46,13.07a38.72,38.72,0,0,1,18.29,10.45q7.84,7.83,7.84,23.52v5.22q0,26.13-20.91,26.13h-20.9q-20.91,0-20.91-26.13V110.78h26.13v10.45h10.46V116q0-10.45-10.46-13.07A38.85,38.85,0,0,1,95.4,92.49Q87.57,84.65,87.56,69V63.74q0-26.13,20.91-26.13h20.9q20.91,0,20.91,26.13Z" transform="translate(-14.39 -37.61)"/></svg>